<svg xmlns="http://www.w3.org/2000/svg" xmlns:xlink="http://www.w3.org/1999/xlink" width="1366" zoomAndPan="magnify" viewBox="0 0 1024.5 576" height="768" preserveAspectRatio="xMidYMid meet" version="1.0"><defs><g/><clipPath id="04f1bddd75"><path d="M 253.507812 332 L 310 332 L 310 384.675781 L 253.507812 384.675781 Z M 253.507812 332 " clip-rule="nonzero"/></clipPath><clipPath id="d05391f415"><path d="M 408 309.726562 L 435.667969 309.726562 L 435.667969 337 L 408 337 Z M 408 309.726562 " clip-rule="nonzero"/></clipPath><clipPath id="7b057ca0bd"><rect x="0" width="459" y="0" height="277"/></clipPath></defs><path fill="#0acdbb" d="M 411.546875 330.394531 C 401.964844 338.84375 391.496094 348.179688 381.910156 356.628906 C 381.914062 356.640625 381.917969 356.648438 381.921875 356.65625 C 382.019531 356.789062 382.113281 356.933594 382.195312 357.097656 C 382.289062 357.261719 382.363281 357.421875 382.421875 357.582031 C 383.132812 359.152344 383.546875 360.847656 383.671875 362.558594 C 394.066406 353.390625 405.351562 343.339844 415.746094 334.171875 C 414.109375 333.203125 412.667969 331.914062 411.546875 330.394531 Z M 411.546875 330.394531 " fill-opacity="1" fill-rule="nonzero"/><path fill="#0acdbb" d="M 333.171875 330.441406 C 333.023438 332.53125 332.378906 334.539062 331.34375 336.3125 C 340.058594 343.996094 349.652344 352.558594 358.367188 360.242188 C 358.820312 358.332031 359.667969 356.53125 360.90625 355 C 351.953125 347.109375 342.121094 338.335938 333.171875 330.441406 Z M 333.171875 330.441406 " fill-opacity="1" fill-rule="nonzero"/><g clip-path="url(#04f1bddd75)"><path fill="#0acdbb" d="M 275.195312 360.679688 C 273.003906 359.019531 270.261719 357.996094 267.144531 357.828125 C 259.566406 357.417969 254.085938 364.277344 253.710938 371.261719 C 253.304688 378.84375 260.164062 384.320312 267.144531 384.695312 C 274.421875 385.085938 279.746094 378.78125 280.496094 372.097656 C 280.558594 371.84375 280.597656 371.574219 280.578125 371.261719 C 280.597656 370.957031 280.558594 370.691406 280.5 370.4375 C 280.289062 368.421875 279.726562 366.566406 278.851562 364.941406 C 289.050781 355.949219 299.691406 346.515625 309.890625 337.523438 C 308.695312 335.96875 307.84375 334.15625 307.472656 332.175781 C 296.859375 341.527344 285.808594 351.324219 275.195312 360.679688 Z M 259.335938 371.261719 C 258.792969 361.1875 274.414062 361.238281 274.957031 371.261719 C 274.414062 381.328125 259.878906 381.328125 259.335938 371.261719 Z M 259.335938 371.261719 " fill-opacity="1" fill-rule="nonzero"/></g><path fill="#0acdbb" d="M 333.546875 328.347656 C 333.535156 328.242188 333.515625 328.140625 333.496094 328.039062 C 333.488281 327.894531 333.476562 327.75 333.445312 327.601562 C 332.175781 320.839844 325.914062 316.078125 319.0625 316.652344 C 312.089844 317.238281 307.015625 323.175781 306.824219 330.019531 C 306.800781 330.910156 306.875 331.777344 307.03125 332.613281 C 307.402344 334.597656 308.257812 336.410156 309.449219 337.964844 C 312.09375 341.40625 316.414062 343.570312 320.902344 343.4375 C 325.578125 343.296875 329.570312 340.5625 331.785156 336.757812 C 332.820312 334.980469 333.464844 332.972656 333.613281 330.886719 C 333.671875 330.046875 333.65625 329.199219 333.546875 328.347656 Z M 320.902344 337.8125 C 316.246094 338.230469 312.671875 334.480469 312.449219 330.023438 C 312.246094 326.007812 315.554688 322.984375 319.222656 322.257812 C 323.527344 321.410156 327.085938 324.914062 327.960938 328.792969 C 328.320312 333.25 325.632812 337.386719 320.902344 337.8125 Z M 320.902344 337.8125 " fill-opacity="1" fill-rule="nonzero"/><path fill="#0acdbb" d="M 382.636719 356.65625 C 382.554688 356.492188 382.460938 356.347656 382.363281 356.210938 C 382.359375 356.203125 382.355469 356.195312 382.351562 356.1875 C 378.449219 350.023438 370.699219 348.042969 364.214844 351.46875 C 362.714844 352.261719 361.464844 353.320312 360.464844 354.558594 C 359.226562 356.089844 358.378906 357.890625 357.925781 359.800781 C 357.117188 363.210938 357.578125 366.960938 359.367188 370.078125 C 362.917969 376.265625 370.714844 377.933594 376.921875 375.125 C 382.082031 372.792969 384.492188 367.386719 384.113281 362.117188 C 383.992188 360.40625 383.574219 358.710938 382.867188 357.140625 C 382.804688 356.980469 382.730469 356.816406 382.636719 356.65625 Z M 374.597656 370.003906 C 371.261719 371.980469 366.75 370.78125 364.53125 367.714844 C 361.957031 364.164062 362.933594 359.160156 366.484375 356.671875 C 370.378906 353.941406 375.503906 355.582031 377.78125 359.496094 C 379.730469 363.390625 378.277344 367.820312 374.597656 370.003906 Z M 374.597656 370.003906 " fill-opacity="1" fill-rule="nonzero"/><g clip-path="url(#d05391f415)"><path fill="#0acdbb" d="M 435.523438 322.546875 C 435.328125 315.488281 429.371094 310.15625 422.574219 309.738281 C 422.425781 309.71875 422.273438 309.710938 422.109375 309.714844 C 421.945312 309.710938 421.792969 309.71875 421.648438 309.738281 C 414.585938 310.152344 409.28125 315.488281 408.6875 322.546875 C 408.429688 325.632812 409.390625 328.503906 411.105469 330.835938 C 412.226562 332.355469 413.667969 333.644531 415.304688 334.613281 C 417.6875 336.023438 420.484375 336.753906 423.304688 336.515625 C 430.453125 335.914062 435.722656 329.609375 435.523438 322.546875 Z M 423.140625 330.910156 C 418.136719 331.898438 414.1875 327.140625 414.316406 322.546875 C 414.429688 318.433594 418.226562 315.445312 422.109375 315.339844 C 426.164062 315.449219 429.558594 318.4375 429.902344 322.546875 C 430.257812 326.804688 427.144531 330.121094 423.140625 330.910156 Z M 423.140625 330.910156 " fill-opacity="1" fill-rule="nonzero"/></g><g transform="matrix(1, 0, 0, 1, 312, 149)"><g clip-path="url(#7b057ca0bd)"><g fill="#000000" fill-opacity="1"><g transform="translate(1.04733, 129.218934)"><g><path d="M 62.0625 -23.734375 L 33.546875 -23.734375 L 25.859375 0 L 0.53125 0 L 33.546875 -91.515625 L 62.734375 -91.515625 L 95.75 0 L 69.765625 0 Z M 47.875 -70.421875 L 39.390625 -42.3125 L 56.359375 -42.3125 Z M 47.875 -70.421875 "/></g></g></g><g fill="#000000" fill-opacity="1"><g transform="translate(92.560854, 129.218934)"><g><path d="M 90.1875 -91.515625 L 90.1875 -40.1875 C 90.1875 -37.882812 90.160156 -35.847656 90.109375 -34.078125 C 90.066406 -32.316406 89.957031 -30.066406 89.78125 -27.328125 C 89.425781 -22.191406 87.878906 -17.410156 85.140625 -12.984375 C 82.398438 -8.566406 78.15625 -4.988281 72.40625 -2.25 C 66.664062 0.488281 59.066406 1.859375 49.609375 1.859375 C 40.234375 1.859375 32.648438 0.488281 26.859375 -2.25 C 21.066406 -4.988281 16.800781 -8.566406 14.0625 -12.984375 C 11.320312 -17.410156 9.773438 -22.191406 9.421875 -27.328125 C 9.242188 -30.066406 9.128906 -32.316406 9.078125 -34.078125 C 9.035156 -35.847656 9.015625 -37.882812 9.015625 -40.1875 L 9.015625 -91.515625 L 32.890625 -91.515625 L 32.890625 -35.8125 C 32.890625 -34.570312 32.890625 -33.550781 32.890625 -32.75 C 32.890625 -31.957031 32.9375 -31.164062 33.03125 -30.375 C 33.726562 -20.5625 39.253906 -15.65625 49.609375 -15.65625 C 59.953125 -15.65625 65.476562 -20.5625 66.1875 -30.375 C 66.269531 -31.164062 66.3125 -31.957031 66.3125 -32.75 C 66.3125 -33.550781 66.3125 -34.570312 66.3125 -35.8125 L 66.3125 -91.515625 Z M 90.1875 -91.515625 "/></g></g></g><g fill="#000000" fill-opacity="1"><g transform="translate(187.787976, 129.218934)"><g><path d="M 85.140625 -72.9375 L 55.4375 -72.9375 L 55.4375 0 L 31.5625 0 L 31.5625 -72.9375 L 1.859375 -72.9375 L 1.859375 -91.515625 L 85.140625 -91.515625 Z M 85.140625 -72.9375 "/></g></g></g><g fill="#000000" fill-opacity="1"><g transform="translate(271.609054, 129.218934)"><g><path d="M 94.953125 -91.515625 L 94.953125 0 L 71.09375 0 L 71.09375 -35.546875 L 34.484375 -35.546875 L 34.484375 0 L 10.609375 0 L 10.609375 -91.515625 L 34.484375 -91.515625 L 34.484375 -54.109375 L 71.09375 -54.109375 L 71.09375 -91.515625 Z M 94.953125 -91.515625 "/></g></g></g><g fill="#000000" fill-opacity="1"><g transform="translate(373.732885, 129.218934)"><g><path d="M 80.765625 -18.5625 L 80.765625 0 L 10.609375 0 L 10.609375 -91.515625 L 79.4375 -91.515625 L 79.4375 -72.9375 L 34.484375 -72.9375 L 34.484375 -55.171875 L 76.796875 -55.171875 L 76.796875 -36.609375 L 34.484375 -36.609375 L 34.484375 -18.5625 Z M 80.765625 -18.5625 "/></g></g></g><g fill="#000000" fill-opacity="1"><g transform="translate(122.796169, 245.577805)"><g><path d="M 98.140625 0 L 66.96875 0 L 33.6875 -60.484375 C 34.125 -55.878906 34.363281 -51.609375 34.40625 -47.671875 C 34.457031 -43.742188 34.484375 -40.453125 34.484375 -37.796875 L 34.484375 0 L 10.609375 0 L 10.609375 -91.515625 L 40.3125 -91.515625 L 75.0625 -28.375 C 74.707031 -33.0625 74.484375 -37.570312 74.390625 -41.90625 C 74.304688 -46.238281 74.265625 -49.734375 74.265625 -52.390625 L 74.265625 -91.515625 L 98.140625 -91.515625 Z M 98.140625 0 "/></g></g></g><g fill="#000000" fill-opacity="1"><g transform="translate(228.103043, 245.577805)"><g><path d="M 85.140625 -72.9375 L 55.4375 -72.9375 L 55.4375 0 L 31.5625 0 L 31.5625 -72.9375 L 1.859375 -72.9375 L 1.859375 -91.515625 L 85.140625 -91.515625 Z M 85.140625 -72.9375 "/></g></g></g><g fill="#000000" fill-opacity="1"><g transform="translate(311.924145, 245.577805)"><g><path d="M 34.484375 0 L 10.609375 0 L 10.609375 -91.515625 L 34.484375 -91.515625 Z M 34.484375 0 "/></g></g></g><g fill="#000000" fill-opacity="1"><g transform="translate(353.569412, 245.577805)"><g><path d="M 89.125 -16.84375 C 93.8125 -15.425781 98.539062 -12.726562 103.3125 -8.75 L 91.90625 6.359375 C 87.664062 3.796875 84.238281 2.050781 81.625 1.125 C 79.019531 0.195312 76.171875 -0.265625 73.078125 -0.265625 C 71.222656 -0.265625 69.609375 -0.175781 68.234375 0 C 66.867188 0.175781 65.253906 0.484375 63.390625 0.921875 C 60.648438 1.546875 57.515625 1.859375 53.984375 1.859375 C 44.515625 1.859375 36.265625 -0.0625 29.234375 -3.90625 C 22.210938 -7.757812 16.773438 -13.242188 12.921875 -20.359375 C 9.078125 -27.472656 7.15625 -35.9375 7.15625 -45.75 C 7.15625 -55.570312 9.078125 -64.0625 12.921875 -71.21875 C 16.773438 -78.382812 22.210938 -83.890625 29.234375 -87.734375 C 36.265625 -91.578125 44.515625 -93.5 53.984375 -93.5 C 63.523438 -93.5 71.785156 -91.578125 78.765625 -87.734375 C 85.753906 -83.890625 91.171875 -78.382812 95.015625 -71.21875 C 98.867188 -64.0625 100.796875 -55.570312 100.796875 -45.75 C 100.796875 -40.1875 99.820312 -34.882812 97.875 -29.84375 C 95.925781 -24.800781 93.007812 -20.46875 89.125 -16.84375 Z M 31.5625 -45.75 C 31.5625 -36.113281 33.570312 -28.6875 37.59375 -23.46875 C 41.625 -18.257812 47.085938 -15.65625 53.984375 -15.65625 C 60.878906 -15.65625 66.335938 -18.257812 70.359375 -23.46875 C 74.378906 -28.6875 76.390625 -36.113281 76.390625 -45.75 C 76.390625 -55.476562 74.378906 -62.953125 70.359375 -68.171875 C 66.335938 -73.390625 60.878906 -76 53.984375 -76 C 47.085938 -76 41.625 -73.390625 37.59375 -68.171875 C 33.570312 -62.953125 31.5625 -55.476562 31.5625 -45.75 Z M 31.5625 -45.75 "/></g></g></g></g></g></svg>